<?xml version="1.0" encoding="utf-8"?>
<!-- Generator: Adobe Illustrator 21.0.0, SVG Export Plug-In . SVG Version: 6.00 Build 0)  -->
<svg version="1.1" id="Isolation_Mode" xmlns="http://www.w3.org/2000/svg" xmlns:xlink="http://www.w3.org/1999/xlink" x="0px"
	 y="0px" viewBox="0 0 842.5 186.9" style="enable-background:new 0 0 842.5 186.9;" xml:space="preserve">
<style type="text/css">
	.st0{fill:#E73843;}
	.st1{fill:#020202;}
</style>
<path class="st0" d="M33.2,90.9c-3.8-3.2-7-7-8.9-11.5C22.3,75,21,69.2,21,62.9c0-6.4,1.3-12.1,3.2-16.6c1.9-4.5,5.1-8.3,8.9-11.5
	c1.9-1.9,4.5-3.8,6.4-5.1v-21c-1.3,0.6-2.6,0.6-3.8,1.3C30.6,11.8,25.5,15,21,17.6c-4.5,3.8-8.3,7.7-11.5,12.1
	c-3.2,4.5-5.1,8.9-7,14.7C0.6,50.1,0,55.9,0,62.9C0,73.1,1.9,82,5.7,89c3.8,7.7,8.9,13.4,15.3,18.5c5.7,3.8,11.5,7,18.5,9.6V95.4
	C37.6,94.1,35.1,92.8,33.2,90.9"/>
<path class="st1" d="M260.2,61.6c-13.4,0.6-24.9,1.9-35.1,3.2c-10.8,1.3-20.4,3.8-27.4,5.7c-6.4,1.9-10.8,4.5-14,7
	c-1.9,1.9-3.2,3.8-3.2,6.4c0,1.9,0.6,3.8,1.3,5.7c1.3,1.9,2.6,3.2,5.1,4.5c2.6,1.3,5.7,2.6,9.6,3.2c3.8,0.6,8.9,1.3,14,1.3
	c3.2,0,6.4,0,9.6-0.6c3.2-0.6,6.4-0.6,10.2-1.3c3.2-0.6,7-1.3,9.6-2.6c3.2-0.6,6.4-1.9,8.9-2.6c2.6-1.3,5.1-1.9,7.7-3.2
	c1.3-0.6,1.9-1.3,3.2-1.9V61.6L260.2,61.6L260.2,61.6z M208.6,119c-7,0-13.4-0.6-19.1-1.9c-5.7-1.3-10.8-3.2-15.3-6.4
	c-4.5-3.2-8.3-6.4-10.2-10.8c-2.6-4.5-3.8-9.6-3.8-15.3c0-5.7,1.3-10.8,4.5-15.3c2.6-4.5,7-7.7,11.5-10.8c4.5-2.6,10.2-5.1,16.6-7
	c6.4-1.9,13.4-3.2,21-4.5c7.7-1.3,15.9-2.6,24.9-3.2c7-0.6,14.7-1.3,22.3-1.9v-2.6c0-2.6-0.6-4.5-1.3-5.7c-0.6-1.9-1.9-3.2-3.8-4.5
	c-1.9-1.3-3.8-2.6-5.7-3.8c-2.6-1.3-5.1-1.9-8.3-2.6c-3.2-0.6-6.4-1.3-9.6-1.3c-3.8,0-7-0.6-10.8-0.6c-4.5,0-8.9,0-12.8,0.6
	c-3.8,0.6-7.7,1.3-10.8,1.9c-3.2,0.6-7,1.9-9.6,2.6c-3.2,1.3-6.4,2.6-9.6,3.8l-8.9,3.2V9.3l4.5-1.3c7-1.9,14.7-3.8,22.3-5.1
	c8.3-1.3,17.2-1.9,26.1-1.9c7.7,0,15.3,0.6,21.7,1.9c7,1.3,13.4,3.8,18.5,7c5.7,3.2,10.2,7.7,13.4,12.8c3.2,5.1,5.1,11.5,5.1,19.1
	v75.3h-21v-7.7c-1.3,0.6-2.6,1.3-4.5,1.9c-4.5,1.9-9.6,3.2-14.7,4.5c-5.1,1.3-10.8,1.9-15.9,2.6C219.4,118.4,214.3,119,208.6,119"/>
<polygon class="st1" points="341.9,116.4 285.1,2.9 308.7,2.9 352.7,91.6 396.7,2.9 420.3,2.9 362.9,116.4 "/>
<rect x="433.1" y="2.9" class="st1" width="21" height="114.2"/>
<path class="st1" d="M540.8,20.8c-8.3,0-15.9,0.6-22.3,2.6c-6.4,1.9-11.5,4.5-15.3,7.7c-3.8,3.2-7,7-8.9,12.1
	c-1.9,5.1-3.2,10.2-3.2,16.6s1.3,12.1,3.2,16.6s5.1,8.3,8.9,11.5c3.8,3.2,8.9,5.7,15.3,7.7c6.4,1.9,14,2.6,22.3,2.6
	c8.3,0,15.9-0.6,22.3-2.6c6.4-1.9,11.5-4.5,15.3-7.7c3.8-3.2,7-7,8.9-12.1c1.9-5.1,3.2-10.2,3.2-16.6c0-6.4-1.3-12.1-3.2-17.2
	c-1.9-4.5-5.1-8.3-8.9-11.5c-3.8-3.2-8.9-5.7-15.3-7.7C556.8,22.1,549.1,20.8,540.8,20.8 M540.8,119c-9.6,0-18.5-1.3-27.4-3.2
	c-8.3-2.6-15.9-6.4-22.3-10.8c-6.4-5.1-11.5-10.8-15.3-18.5c-3.8-7.7-5.7-16.6-5.7-26.2c0-6.4,0.6-12.8,2.6-18.5
	c1.9-5.7,4.5-10.8,7-15.3c3.2-4.5,7-8.3,11.5-11.5c4.5-3.2,8.9-5.7,14.7-7.7c5.1-1.9,10.8-3.8,16.6-4.5c5.7-1.3,12.1-1.9,18.5-1.9
	c9.6,0,18.5,1.3,26.8,3.2c8.3,2.6,15.9,5.7,22.3,10.8c6.4,5.1,11.5,10.8,15.3,18.5c3.8,7.7,5.7,16.6,5.7,26.1
	c0,10.2-1.9,19.1-5.7,26.2c-3.8,7.7-8.9,14-15.3,18.5c-6.4,4.5-14,8.3-22.3,10.8C559.3,117.7,550.4,119,540.8,119"/>
<path class="st1" d="M820.8,86.5c-0.6,0.6-1.9,1.3-3.2,1.9c-1.9,1.3-4.5,1.9-7.7,3.2c-2.6,1.3-5.7,1.9-8.9,2.6
	c-3.2,0.6-6.4,1.9-9.6,2.6c-3.2,0.6-6.4,1.3-10.2,1.3c-3.2,0.6-6.4,0.6-9.6,0.6c-5.1,0-9.6-0.6-14-1.3c-3.8-0.6-7-1.9-9.6-3.2
	c-2.6-1.3-3.8-2.6-5.1-4.5c-1.3-1.3-1.3-3.2-1.3-5.7c0-2.6,1.3-4.5,3.2-6.4c2.6-2.6,7.7-5.1,14-7c7-2.6,15.9-4.5,27.4-5.7
	c9.6-1.3,21.7-2.6,35.1-3.2v24.9L820.8,86.5L820.8,86.5z M836.8,22.7c-3.2-5.1-7.7-9.6-13.4-12.8c-5.1-3.2-11.5-5.1-18.5-7
	c-7-1.3-14-1.9-21.7-1.9c-8.9,0-17.9,0.6-26.1,1.9c-7.7,1.3-15.3,3.2-22.3,5.1l-4.5,1.3v23.6l8.3-3.2c3.2-1.3,6.4-2.6,9.6-3.8
	c3.2-1.3,6.4-1.9,9.6-2.6c3.2-0.6,7-1.3,10.8-1.9c3.8-0.6,8.3-0.6,12.8-0.6c3.2,0,7,0,10.8,0.6c3.8,0.6,7,0.6,9.6,1.3
	c3.2,0.6,5.7,1.3,8.3,2.6c2.6,1.3,4.5,1.9,5.7,3.8c1.3,1.3,2.6,2.6,3.8,4.5c0.6,1.9,1.3,3.8,1.3,5.7v2.6c-7.7,0.6-14.7,1.3-22.3,1.9
	c-8.9,0.6-16.6,1.9-24.9,3.2c-7.7,1.3-14.7,3.2-21,4.5c-6.4,1.9-12.1,4.5-16.6,7c-5.1,3.2-8.9,7-11.5,10.8
	c-3.2,4.5-4.5,9.6-4.5,15.3c0,2.6,0.6,5.7,1.3,8.3c-0.6,0-0.6,0-1.3,0.6c-3.2,1.3-6.4,1.9-9.6,2.6c-3.2,0.6-7,1.3-10.8,1.9
	c-3.8,0.6-8.3,0.6-12.8,0.6c-3.2,0-7,0-10.8-0.6c-3.2,0-6.4-0.6-9.6-1.3c-3.2-0.6-5.7-1.3-8.3-2.6c-2.6-1.3-4.5-1.9-5.7-3.8
	c-1.3-1.3-2.6-2.6-3.2-4.5c-0.6-1.9-1.3-3.8-1.3-5.7v-7.7l-0.6-36.4h35.7V14.4H648V2.9h-21v75.3c0,7.7,1.9,14,5.1,19.1
	c3.2,5.1,7.7,9.6,13.4,12.8c5.1,3.2,11.5,5.1,18.5,7c7,1.3,14,1.9,21.7,1.9c8.9,0,17.9-0.6,26.1-1.9c8.3-1.3,15.3-3.2,22.3-5.1
	l1.9-0.6c3.8,2.6,8.9,4.5,14.7,5.7c5.7,1.3,12.1,1.9,19.1,1.9c5.1,0,10.8-0.6,16.6-1.3c5.7-0.6,10.8-1.9,15.9-2.6
	c5.1-1.3,10.2-2.6,14.7-4.5c1.3-0.6,3.2-1.3,4.5-1.9v7.7h21V41.8C841.9,34.2,840,27.8,836.8,22.7"/>
<path class="st1" d="M140.3,110.7V2.9h-21v14.7c-6.4-4.5-14-8.3-22.3-10.2c-8.3-1.9-17.2-3.2-26.8-3.2c-3.8,0-7.7,0-11.5,0.6v19.8
	c3.8-0.6,7-0.6,11.5-0.6c8.3,0,15.9,0.6,22.3,2.6c5.7,1.9,10.8,4.5,15.3,7.7c3.8,3.2,7,7,8.9,11.5c1.9,5.1,3.2,10.2,3.2,16.6
	c0,6.4-1.3,12.1-3.2,16.6c-1.9,4.5-5.1,8.3-8.9,11.5c-3.8,3.2-8.9,5.7-15.3,7.7s-14,2.6-22.3,2.6c-3.8,0-7.7,0-11.5-0.6v19.8
	c3.8,0.6,7.7,0.6,11.5,0.6c9.6,0,18.5-1.3,26.8-3.2c8.3-2.6,15.9-5.7,22.3-10.2v5.1c-0.6,10.8-3.8,13.4-6.4,15.9l-0.6,0.6
	c-1.3,1.3-4.5,1.9-7,3.2c-3.2,1.3-7,1.9-10.8,2.6c-3.8,0.6-8.3,1.3-12.8,1.3c-4.5,0-8.9,0.6-13.4,0.6c-6.4,0-11.5,0-16.6-0.6
	c-4.5-0.6-9.6-1.3-13.4-1.9c-3.8-0.6-8.3-1.9-12.1-2.6c-4.5-1.3-8.3-2.6-12.1-3.8l-7.7-2.6v23l4.5,1.3c8.3,1.9,17.9,3.2,27.4,4.5
	c9.6,1.3,20.4,1.9,31.3,1.9c9.6,0,18.5-0.6,26.8-1.9c7-1.3,15.9-2.6,23-6.4C140.9,136.9,140.9,119,140.3,110.7"/>
<path class="st1" d="M218.8,178.3L218.8,178.3l-0.6-26.8l0,0h-8.3c0,0-0.6,0-0.6-0.6v-3.8c0,0,0-0.6,0.6-0.6h23c0,0,0.6,0,0.6,0.6
	v3.8c0,0,0,0.6-0.6,0.6h-8.3l0,0v26.8c0,0,0,0.6-0.6,0.6h-5.1L218.8,178.3L218.8,178.3z"/>
<path class="st1" d="M253.2,178.3C252.6,178.3,252.6,178.3,253.2,178.3l-0.6-13.4c0-3.2-1.3-5.1-4.5-5.1c-2.6,0-4.5,1.9-4.5,5.1
	v13.4c0,0,0,0.6-0.6,0.6h-4.5c0,0-0.6,0-0.6-0.6v-31.3c0,0,0-0.6,0.6-0.6h4.5c0,0,0.6,0,0.6,0.6v10.8l0,0c1.3-1.3,3.2-2.6,5.7-2.6
	c5.1,0,7.7,3.8,7.7,8.3v14.7c0,0,0,0.6-0.6,0.6h-3.2L253.2,178.3L253.2,178.3z"/>
<path class="st1" d="M264.7,172.6c-0.6-1.3-0.6-3.2-0.6-5.7c0-2.6,0-4.5,0.6-5.7c1.3-3.8,5.1-6.4,9.6-6.4s8.3,2.6,9.6,6.4
	c0.6,1.9,0.6,3.2,0.6,7c0,0,0,0.6-0.6,0.6h-14l0,0c0,0.6,0,1.3,0.6,1.9c0.6,1.9,2.6,3.2,5.1,3.2s4.5-0.6,5.1-1.9h0.6l2.6,2.6v0.6
	c-1.9,2.6-5.1,3.8-9.6,3.8C269.8,178.9,266,177,264.7,172.6 M278.7,162.4c-0.6-1.9-2.6-3.2-4.5-3.2c-1.9,0-3.8,1.3-4.5,3.2
	c0,0.6,0,1.3,0,1.9l0,0h8.9l0,0C278.7,163.6,278.7,163,278.7,162.4"/>
<path class="st1" d="M301,175.1v-0.6l3.2-3.2h0.6c1.9,1.9,5.1,3.2,8.9,3.2c3.8,0,6.4-1.9,6.4-4.5c0-2.6-1.3-3.8-5.7-4.5h-1.9
	c-6.4-0.6-9.6-3.8-9.6-8.9c0-5.7,4.5-9.6,10.8-9.6c3.8,0,7.7,1.3,10.2,3.2v0.6l-2.6,3.8h-0.6c-2.6-1.9-5.1-2.6-7.7-2.6
	c-3.2,0-5.1,1.9-5.1,4.5c0,1.9,1.3,3.8,5.7,4.5h1.9c6.4,0.6,9.6,3.8,9.6,9.6c0,5.7-3.8,9.2-12.1,9.2
	C306.5,179.1,303.6,177,301,175.1"/>
<path class="st1" d="M345,178.3L345,178.3l-0.6-1.9l0,0c-1.3,1.3-3.2,2.6-5.7,2.6c-5.1,0-7.7-3.8-7.7-8.3V156c0,0,0-0.6,0.6-0.6h4.5
	c0,0,0.6,0,0.6,0.6v13.4c0,3.2,1.3,5.1,4.5,5.1c2.6,0,4.5-1.9,4.5-5.1V156c0,0,0-0.6,0.6-0.6h4.5c0,0,0.6,0,0.6,0.6v21.7
	c0,0,0,0.6-0.6,0.6L345,178.3L345,178.3L345,178.3L345,178.3z"/>
<path class="st1" d="M372.5,178.3C371.8,178.3,371.8,178.3,372.5,178.3l-0.6-13.4c0-3.2-1.3-5.1-4.5-5.1c-2.6,0-4.5,1.9-4.5,5.1
	v13.4c0,0,0,0.6-0.6,0.6h-4.5c0,0-0.6,0-0.6-0.6v-21.7c0,0,0-0.6,0.6-0.6h4.5c0,0,0.6,0,0.6,0.6v1.9l0,0c1.3-1.3,3.2-2.6,5.7-2.6
	c5.1,0,7.7,3.8,7.7,8.3v14.7c0,0,0,0.6-0.6,0.6h-3.2L372.5,178.3L372.5,178.3z"/>
<path class="st1" d="M401.8,160.5c-2.6-3.2-3.8-5.1-3.8-7.7c0-4.5,3.8-7.7,8.3-7.7c4.5,0,7.7,3.2,7.7,7c0,3.2-1.3,5.1-5.7,8.3
	l5.1,6.4l3.2-3.8h0.6l2.6,1.9v0.6l-3.8,4.5l1.3,1.3c0.6,0.6,1.3,1.3,1.9,1.3h0.6c0,0,0.6,0,0.6,0.6v3.8c0,0,0,0.6-0.6,0.6h-1.3
	c-1.9,0-3.2-0.6-4.5-2.6l-0.6-1.3c-2.6,2.6-5.1,3.8-8.3,3.8c-5.7,0-8.9-3.8-8.9-8.9C396.1,166.8,397.3,164.3,401.8,160.5 M405,174.5
	c1.9,0,3.2-0.6,5.1-3.2l-5.7-7c-3.2,2.6-3.8,4.5-3.8,5.7C400.5,172.6,402.4,174.5,405,174.5 M409.5,152.8c0-1.3-1.3-2.6-3.2-2.6
	c-1.9,0-3.2,1.3-3.2,3.2c0,1.3,0.6,1.9,2.6,4.5C408.8,155.3,409.5,154.7,409.5,152.8"/>
<path class="st1" d="M438.2,175.1v-0.6l3.2-3.2h0.6c1.9,1.9,5.1,3.2,8.9,3.2c3.8,0,6.4-1.9,6.4-4.5c0-2.6-1.3-3.8-5.7-4.5h-1.9
	c-6.4-0.6-9.6-3.8-9.6-8.9c0-5.7,4.5-9.6,10.8-9.6c3.8,0,7.7,1.3,10.2,3.2v0.6l-2.6,3.8h-0.6c-2.6-1.9-5.1-2.6-7.7-2.6
	c-3.2,0-5.1,1.9-5.1,4.5c0,1.9,1.3,3.8,5.7,4.5h1.9c6.4,0.6,9.6,3.8,9.6,9.6c0,5.7-3.8,9.2-12.1,9.2
	C444.6,179,440.7,177,438.2,175.1"/>
<path class="st1" d="M482.8,178.3C482.2,178.3,482.2,178.3,482.8,178.3l-0.6-13.4c0-3.2-1.3-5.1-4.5-5.1c-2.6,0-4.5,1.9-4.5,5.1
	v13.4c0,0,0,0.6-0.6,0.6h-4.5c0,0-0.6,0-0.6-0.6v-31.3c0,0,0-0.6,0.6-0.6h4.5c0,0,0.6,0,0.6,0.6v10.8l0,0c1.3-1.3,3.2-2.6,5.7-2.6
	c5.1,0,7.7,3.8,7.7,8.3v14.7c0,0,0,0.6-0.6,0.6h-3.2L482.8,178.3L482.8,178.3z"/>
<path class="st1" d="M509,178.3C509,178.3,508.3,178.3,509,178.3l-0.6-1.9l0,0c-1.3,1.3-3.2,2.6-5.7,2.6c-5.1,0-7.7-3.8-7.7-8.3V156
	c0,0,0-0.6,0.6-0.6h4.5c0,0,0.6,0,0.6,0.6v13.4c0,3.2,1.3,5.1,4.5,5.1c2.6,0,4.5-1.9,4.5-5.1V156c0,0,0-0.6,0.6-0.6h4.5
	c0,0,0.6,0,0.6,0.6v21.7c0,0,0,0.6-0.6,0.6L509,178.3L509,178.3L509,178.3L509,178.3z"/>
<path class="st1" d="M528.1,178.9c-4.5,0-6.4-1.9-6.4-6.4v-12.1l0,0h-1.3c0,0-0.6,0-0.6-0.6v-3.2c0,0,0-0.6,0.6-0.6h1.3l0,0v-6.4
	c0,0,0-0.6,0.6-0.6h4.5c0,0,0.6,0,0.6,0.6v6.4l0,0h3.2c0,0,0.6,0,0.6,0.6v3.2c0,0,0,0.6-0.6,0.6h-3.2l0,0v12.1
	c0,1.9,0.6,1.9,1.9,1.9h1.3c0,0,0.6,0,0.6,0.6v3.8c0,0,0,0.6-0.6,0.6h-2.6V178.9L528.1,178.9z"/>
<path class="st1" d="M544,178.9c-4.5,0-6.4-1.9-6.4-6.4v-12.1l0,0h-1.9c0,0-0.6,0-0.6-0.6v-3.2c0,0,0-0.6,0.6-0.6h1.3l0,0v-6.4
	c0,0,0-0.6,0.6-0.6h4.5c0,0,0.6,0,0.6,0.6v6.4l0,0h3.2c0,0,0.6,0,0.6,0.6v3.2c0,0,0,0.6-0.6,0.6h-3.2l0,0v12.1
	c0,1.9,0.6,1.9,1.9,1.9h1.3c0,0,0.6,0,0.6,0.6v3.8c0,0,0,0.6-0.6,0.6H544V178.9z"/>
<path class="st1" d="M553,172.6c-0.6-1.3-0.6-3.2-0.6-5.7c0-2.6,0-4.5,0.6-5.7c1.3-3.8,5.1-6.4,9.6-6.4s8.3,2.6,9.6,6.4
	c0.6,1.9,0.6,3.2,0.6,7c0,0,0,0.6-0.6,0.6h-14l0,0c0,0.6,0,1.3,0.6,1.9c0.6,1.9,2.6,3.2,5.1,3.2s4.5-0.6,5.1-1.9h0.6l2.6,2.6v0.6
	c-1.9,2.6-5.1,3.8-9.6,3.8C557.4,178.9,554.2,177,553,172.6 M567,162.4c-0.6-1.9-2.6-3.2-4.5-3.2c-1.9,0-3.8,1.3-4.5,3.2
	c0,0.6,0,1.3,0,1.9l0,0h8.9l0,0C567,163.6,567,163,567,162.4"/>
<path class="st1" d="M579.1,178.3L579.1,178.3l-0.6-22.3c0,0,0-0.6,0.6-0.6h4.5c0,0,0.6,0,0.6,0.6v1.9l0,0c1.3-1.9,3.2-3.2,5.7-3.2
	c1.9,0,3.8,0.6,5.1,1.9v0.6l-2.6,3.2h-0.6c-1.3-0.6-1.9-1.3-3.2-1.3c-3.2,0-4.5,1.9-4.5,5.7V177c0,0,0,0.6-0.6,0.6h-4.5L579.1,178.3
	L579.1,178.3z"/>
<path class="st1" d="M609.7,175.1v-0.6l3.2-3.2h0.6c1.9,1.9,5.1,3.2,8.9,3.2c3.8,0,6.4-1.9,6.4-4.5c0-2.6-1.3-3.8-5.7-4.5h-1.9
	c-6.4-0.6-9.6-3.8-9.6-8.9c0-5.7,4.5-9.6,10.8-9.6c3.8,0,7.7,1.3,10.2,3.2v0.6l-2.6,3.8h-0.6c-2.6-1.9-5.1-2.6-7.7-2.6
	c-3.2,0-5.1,1.9-5.1,4.5c0,1.9,1.3,3.8,5.7,4.5h1.9c6.4,0.6,9.6,3.8,9.6,9.6c0,5.7-3.8,9.2-12.1,9.2
	C616.6,179.3,612.3,177,609.7,175.1"/>
<path class="st1" d="M640.3,187.2L640.3,187.2l-0.6-31.3c0,0,0-0.6,0.6-0.6h4.5c0,0,0.6,0,0.6,0.6v1.9l0,0c1.3-1.3,3.2-2.6,6.4-2.6
	c3.8,0,7,1.9,7.7,5.7c0.6,1.9,0.6,3.2,0.6,6.4c0,3.2,0,4.5-0.6,6.4c-1.3,3.8-3.8,5.7-7.7,5.7c-3.2,0-5.1-1.3-6.4-2.6l0,0v10.2
	c0,0,0,0.6-0.6,0.6h-4.5V187.2z M654.4,171.3c0.6-1.3,0.6-1.9,0.6-4.5c0-1.9,0-3.2-0.6-4.5c-0.6-1.9-1.9-3.2-4.5-3.2
	c-1.9,0-3.8,1.3-4.5,3.2c-0.6,1.3-0.6,1.9-0.6,4.5c0,1.9,0,3.2,0.6,4.5c0.6,1.9,1.9,3.2,4.5,3.2
	C652.5,174.5,653.7,173.2,654.4,171.3"/>
<path class="st1" d="M666.5,172.6c-0.6-1.3-0.6-3.2-0.6-5.7c0-2.6,0-4.5,0.6-5.7c1.3-3.8,5.1-6.4,9.6-6.4s8.3,2.6,9.6,6.4
	c0.6,1.9,0.6,3.2,0.6,7c0,0,0,0.6-0.6,0.6h-14l0,0c0,0.6,0,1.3,0.6,1.9c0.6,1.9,2.6,3.2,5.1,3.2s4.5-0.6,5.1-1.9h0.6l2.6,2.6v0.6
	c-1.9,2.6-5.1,3.8-9.6,3.8C671,178.9,667.8,177,666.5,172.6 M679.9,162.4c-0.6-1.9-2.6-3.2-4.5-3.2s-3.8,1.3-4.5,3.2
	c0,0.6,0,1.3,0,1.9l0,0h8.9l0,0C680.5,163.6,680.5,163,679.9,162.4"/>
<path class="st1" d="M691.4,172.6c-0.6-1.3-0.6-3.2-0.6-5.7c0-2.6,0-4.5,0.6-5.7c1.3-3.8,5.1-6.4,9.6-6.4c3.2,0,6.4,1.3,7.7,3.8v0.6
	l-3.2,2.6h-0.6c-1.3-1.3-2.6-1.9-4.5-1.9c-1.9,0-3.8,1.3-4.5,3.2c-0.6,1.3-0.6,2.6-0.6,4.5c0,1.9,0,3.2,0.6,4.5
	c0.6,1.9,1.9,3.2,4.5,3.2c1.9,0,3.2-0.6,4.5-1.9h0.6l3.2,2.6v0.6c-1.9,1.9-4.5,3.8-7.7,3.8C696.5,178.9,693.3,177,691.4,172.6"/>
<path class="st1" d="M715.6,151.5L715.6,151.5l-0.6-4.5c0,0,0-0.6,0.6-0.6h4.5c0,0,0.6,0,0.6,0.6v3.8c0,0,0,0.6-0.6,0.6L715.6,151.5
	L715.6,151.5z M715.6,178.3L715.6,178.3L715,156c0,0,0-0.6,0.6-0.6h4.5c0,0,0.6,0,0.6,0.6v21.7c0,0,0,0.6-0.6,0.6L715.6,178.3
	L715.6,178.3z"/>
<path class="st1" d="M741.8,178.3L741.8,178.3l-0.6-1.9l0,0c-1.3,1.3-3.2,2.6-6.4,2.6c-4.5,0-7.7-1.9-7.7-7c0-5.1,3.8-7,8.9-7h4.5
	l0,0v-1.3c0-2.6-1.3-3.8-5.1-3.8c-2.6,0-3.8,0.6-5.1,1.3h-0.6l-1.9-3.2v-0.6c1.9-1.3,4.5-1.9,8.3-1.9c7,0,9.6,2.6,9.6,8.3v14.7
	c0,0,0,0.6-0.6,0.6h-3.2L741.8,178.3L741.8,178.3z M741.8,170.7v-1.9l0,0h-3.8c-3.2,0-5.1,0.6-5.1,3.2c0,1.9,1.3,2.6,3.8,2.6
	C739.8,175.1,741.8,173.8,741.8,170.7"/>
<path class="st1" d="M760.2,178.9c-4.5,0-6.4-1.9-6.4-6.4v-25.5c0,0,0-0.6,0.6-0.6h4.5c0,0,0.6,0,0.6,0.6v25.5
	c0,1.3,0.6,1.9,1.9,1.9h1.3c0,0,0.6,0,0.6,0.6v3.8c0,0,0,0.6-0.6,0.6h-2.6L760.2,178.9L760.2,178.9z"/>
<path class="st1" d="M769.2,151.5C768.5,151.5,768.5,151.5,769.2,151.5l-0.6-4.5c0,0,0-0.6,0.6-0.6h4.5c0,0,0.6,0,0.6,0.6v3.8
	c0,0,0,0.6-0.6,0.6L769.2,151.5L769.2,151.5z M769.2,178.3C768.5,178.3,768.5,178.3,769.2,178.3l-0.6-22.3c0,0,0-0.6,0.6-0.6h4.5
	c0,0,0.6,0,0.6,0.6v21.7c0,0,0,0.6-0.6,0.6L769.2,178.3L769.2,178.3z"/>
<path class="st1" d="M780,175.8v-0.6l2.6-2.6h0.6c1.9,1.3,4.5,2.6,6.4,2.6c2.6,0,4.5-1.3,4.5-2.6c0-1.3-0.6-2.6-3.8-2.6h-2.6
	c-4.5-0.6-7-2.6-7-7s3.2-7,8.9-7c3.8,0,6.4,1.3,8.3,2.6v0.6l-2.6,2.6h-0.6c-1.3-1.3-3.8-1.9-5.7-1.9s-3.2,1.3-3.2,2.6
	c0,1.3,0.6,1.9,3.8,2.6h2.6c5.1,0.6,7,3.2,7,6.4c0,4.5-3.2,7.7-9.6,7.7C785.1,178.9,781.9,177,780,175.8"/>
<path class="st1" d="M812.6,178.9c-4.5,0-6.4-1.9-6.4-6.4v-12.1l0,0h-1.3c0,0-0.6,0-0.6-0.6v-3.2c0,0,0-0.6,0.6-0.6h1.3l0,0v-6.4
	c0,0,0-0.6,0.6-0.6h4.5c0,0,0.6,0,0.6,0.6v6.4l0,0h3.2c0,0,0.6,0,0.6,0.6v3.2c0,0,0,0.6-0.6,0.6h-3.2l0,0v12.1
	c0,1.9,0.6,1.9,1.9,1.9h1.3c0,0,0.6,0,0.6,0.6v3.8c0,0,0,0.6-0.6,0.6h-2.6L812.6,178.9L812.6,178.9z"/>
<path class="st1" d="M820.2,175.8v-0.6l2.6-2.6h0.6c1.9,1.3,4.5,2.6,6.4,2.6c2.6,0,4.5-1.3,4.5-2.6c0-1.3-0.6-2.6-3.8-2.6h-2.6
	c-4.5-0.6-7-2.6-7-7s3.2-7,8.9-7c3.8,0,6.4,1.3,8.3,2.6v0.6l-2.6,2.6h-0.6c-1.3-1.3-3.8-1.9-5.7-1.9c-2.6,0-3.2,1.3-3.2,2.6
	c0,1.3,0.6,1.9,3.8,2.6h2.6c5.1,0.6,7,3.2,7,6.4c0,4.5-3.2,7.7-9.6,7.7C825.3,178.9,822.1,177,820.2,175.8"/>
</svg>
